HIERARCHY
ROOT Hips
{
 OFFSET 0.000000 0.000000 0.000000
 CHANNELS 6 Xposition Yposition Zposition Yrotation Xrotation Zrotation
 JOINT Chest
 {
  OFFSET 0.000000 9.585900 0.002600
  CHANNELS 3 Yrotation Xrotation Zrotation
  JOINT Chest2
  {
   OFFSET 0.000000 9.601200 -0.005300
   CHANNELS 3 Yrotation Xrotation Zrotation
   JOINT Chest3
   {
    OFFSET 0.000000 9.561800 0.000000
    CHANNELS 3 Yrotation Xrotation Zrotation
    JOINT Chest4
    {
     OFFSET 0.000000 9.552100 0.000000
     CHANNELS 3 Yrotation Xrotation Zrotation
     JOINT Neck
     {
      OFFSET 0.000000 14.453000 0.000000
      CHANNELS 3 Yrotation Xrotation Zrotation
      JOINT Head
      {
       OFFSET 0.000000 8.936500 -0.011300
       CHANNELS 3 Yrotation Xrotation Zrotation
       End Site
       {
        OFFSET 0.000000 17.073600 -0.006000
       }
      }
     }
     JOINT RightCollar
     {
      OFFSET -2.921100 9.558500 0.000000
      CHANNELS 3 Yrotation Xrotation Zrotation
      JOINT RightShoulder
      {
       OFFSET -13.519700 0.000000 0.000000
       CHANNELS 3 Yrotation Xrotation Zrotation
       JOINT RightElbow
       {
        OFFSET 0.000000 -29.696600 0.000000
        CHANNELS 3 Yrotation Xrotation Zrotation
        JOINT RightWrist
        {
         OFFSET 0.000000 -24.004700 0.000000
         CHANNELS 3 Yrotation Xrotation Zrotation
         End Site
         {
          OFFSET 0.000000 -17.728500 0.000000
         }
        }
       }
      }
     }
     JOINT LeftCollar
     {
      OFFSET 2.921100 9.558500 0.000000
      CHANNELS 3 Yrotation Xrotation Zrotation
      JOINT LeftShoulder
      {
       OFFSET 13.519700 0.000000 0.000000
       CHANNELS 3 Yrotation Xrotation Zrotation
       JOINT LeftElbow
       {
        OFFSET 0.000000 -29.696600 0.000000
        CHANNELS 3 Yrotation Xrotation Zrotation
        JOINT LeftWrist
        {
         OFFSET 0.000000 -24.004700 0.000000
         CHANNELS 3 Yrotation Xrotation Zrotation
         End Site
         {
          OFFSET 0.000000 -17.728500 0.000000
         }
        }
       }
      }
     }
    }
   }
  }
 }
 JOINT RightHip
 {
  OFFSET -7.771700 -0.012900 -0.001300
  CHANNELS 3 Yrotation Xrotation Zrotation
  JOINT RightKnee
  {
   OFFSET 0.000000 -40.869800 0.001200
   CHANNELS 3 Yrotation Xrotation Zrotation
   JOINT RightAnkle
   {
    OFFSET 0.000000 -39.717900 0.002100
    CHANNELS 3 Yrotation Xrotation Zrotation
    JOINT RightToe
    {
     OFFSET 0.000000 -4.965400 11.033500
     CHANNELS 3 Yrotation Xrotation Zrotation
     End Site
     {
      OFFSET 0.000000 -1.423100 5.872300
     }
    }
   }
  }
 }
 JOINT LeftHip
 {
  OFFSET 7.771700 -0.012900 -0.001300
  CHANNELS 3 Yrotation Xrotation Zrotation
  JOINT LeftKnee
  {
   OFFSET 0.000000 -40.869800 0.001200
   CHANNELS 3 Yrotation Xrotation Zrotation
   JOINT LeftAnkle
   {
    OFFSET 0.000000 -39.717900 0.002100
    CHANNELS 3 Yrotation Xrotation Zrotation
    JOINT LeftToe
    {
     OFFSET 0.000000 -4.965400 11.033500
     CHANNELS 3 Yrotation Xrotation Zrotation
     End Site
     {
      OFFSET 0.000000 -1.423100 5.872300
     }
    }
   }
  }
 }
}
MOTION
Frames: 7
Frame Time: 0.008333
0.000000 85.388000 0.000000 0.000000 -5.767877 0.000000 0.000000 11.653817 0.000000 0.000000 -5.885947 0.000000 0.000000 -0.000000 0.000000 0.000000 -0.000000 0.000000 0.000000 12.528835 0.000000 0.000000 0.711642 0.000000 0.000000 -0.000000 0.000000 0.000000 0.000000 -90.000000 0.000000 -2.309062 0.000000 0.000000 2.309062 0.000000 0.000000 -0.000000 0.000000 0.000000 -0.000000 90.000000 0.000000 -2.309062 0.000000 0.000000 2.309062 0.000000 0.000000 8.520406 0.000000 0.000000 1.905762 0.000000 -0.000000 -4.658285 0.000000 0.000000 -0.000000 0.000000 0.000000 8.520406 0.000000 0.000000 1.905762 0.000000 -0.000000 -4.658285 0.000000 0.000000 -0.000000 0.000000
-16.315312 58.304635 27.952257 155.220458 -36.659337 -0.194230 9.943798 22.404703 5.198732 1.382121 3.561318 0.370085 2.229519 5.719600 0.634721 7.898250 18.926777 3.077496 2.043601 17.514546 -1.317133 4.211707 -3.199385 -3.111415 6.330159 -2.490371 -1.722552 43.083601 -44.526956 -20.076831 37.908497 -0.595480 -0.664635 10.579725 3.879693 -51.005753 -6.160111 -5.325037 0.212791 -34.441908 -37.607433 12.626492 -48.597784 -11.953929 11.863904 -24.775892 4.941853 32.347706 15.217541 -37.104293 12.829953 -1.825969 70.653052 1.172758 0.305707 1.449251 -1.450327 -0.012776 0.172907 0.001492 -0.407200 -36.971191 8.907284 31.988981 72.984434 32.435575 -20.883230 -1.558990 -2.595251 -0.530221 -1.398614 -0.314212
-16.316422 58.304847 27.952483 155.222181 -36.672198 -0.190285 9.939356 22.402504 5.197364 1.383077 3.573336 0.368877 2.228109 5.717918 0.636637 7.899193 18.929091 3.077151 2.016519 17.506849 -1.309830 4.157618 -3.208531 -3.090946 6.347050 -2.508384 -1.719041 43.064388 -44.558205 -20.036253 37.912251 -0.502646 -0.647128 10.579472 3.868958 -51.024337 -6.191450 -5.350071 0.215614 -34.482371 -37.605344 12.640310 -48.541982 -11.898809 11.838357 -24.770746 4.931892 32.352493 15.219953 -37.089937 12.822907 -1.839696 70.651701 1.166218 0.311137 1.451975 -1.452517 -0.013226 0.173258 -0.000620 -0.418070 -36.962014 8.899504 32.007395 72.979194 32.451018 -20.886765 -1.519137 -2.582086 -0.524402 -1.376316 -0.300309
-16.317032 58.305373 27.953069 155.210399 -36.687767 -0.184905 9.943401 22.414879 5.201944 1.390390 3.573213 0.367036 2.219380 5.719628 0.640125 7.895848 18.927213 3.084272 1.960645 17.493273 -1.304654 4.134963 -3.216036 -3.098251 6.361826 -2.509176 -1.731844 43.073319 -44.603377 -20.013621 37.912879 -0.377748 -0.613695 10.573762 3.832508 -51.059536 -6.196548 -5.361002 0.203646 -34.505928 -37.603829 12.648525 -48.516161 -11.859861 11.819779 -24.784773 4.922146 32.342054 15.230095 -37.074589 12.823256 -1.859985 70.647029 1.154661 0.319273 1.456557 -1.454662 -0.016232 0.175054 -0.001454 -0.424341 -36.955305 8.900153 32.046815 72.980503 32.484503 -20.883277 -1.463219 -2.552762 -0.512791 -1.391417 -0.311952
-16.318783 58.306304 27.953357 155.195792 -36.705037 -0.174909 9.943248 22.434047 5.203379 1.379499 3.572411 0.370702 2.234837 5.720533 0.633281 7.881131 18.932841 3.090855 1.937230 17.486641 -1.304342 4.030571 -3.246006 -3.064195 6.397326 -2.539923 -1.738118 43.083103 -44.626848 -19.992370 37.881384 -0.165559 -0.567976 10.583988 3.720270 -51.121386 -6.215381 -5.404263 0.205273 -34.491114 -37.589873 12.631837 -48.499937 -11.800133 11.790815 -24.756702 4.897465 32.376887 15.244123 -37.058117 12.819352 -1.862317 70.643820 1.160526 0.320456 1.465963 -1.453176 -0.015634 0.170341 -0.005643 -0.425221 -36.949420 8.894137 32.093730 72.983035 32.528492 -20.886479 -1.398541 -2.520868 -0.517597 -1.408919 -0.324021
-16.324292 58.306096 27.954582 155.189588 -36.707243 -0.156501 9.931080 22.441577 5.187247 1.378169 3.573394 0.371184 2.238649 5.720040 0.632224 7.868485 18.938422 3.095288 1.912333 17.481167 -1.298950 3.972246 -3.264083 -3.049816 6.435355 -2.600836 -1.730056 43.067487 -44.593929 -19.963633 37.852364 -0.053211 -0.548980 10.600198 3.656499 -51.150450 -6.236465 -5.450918 0.212761 -34.522689 -37.586117 12.635217 -48.487136 -11.669873 11.735672 -24.704153 4.837019 32.434915 15.267031 -37.054842 12.788700 -1.857998 70.644256 1.176845 0.319522 1.469827 -1.455188 -0.013037 0.169227 -0.006745 -0.421414 -36.957519 8.868045 32.078122 72.983933 32.514552 -20.886632 -1.325928 -2.498013 -0.509102 -1.418813 -0.328642
-16.327470 58.308302 27.954526 155.170867 -36.728520 -0.144577 9.943326 22.463575 5.189898 1.377680 3.573794 0.371378 2.223264 5.725251 0.638016 7.877704 18.936504 3.088111 1.880895 17.479236 -1.280144 3.936880 -3.275994 -3.046241 6.446446 -2.617382 -1.729197 43.083617 -44.604477 -19.958673 37.821478 0.041741 -0.534875 10.614047 3.611877 -51.174312 -6.263517 -5.487017 0.226449 -34.629833 -37.608871 12.669964 -48.398543 -11.549135 11.686914 -24.681029 4.814630 32.457063 15.288171 -37.032450 12.770191 -1.846616 70.638093 1.215756 0.327037 1.476863 -1.470589 -0.014534 0.168990 -0.006507 -0.413617 -36.947357 8.854025 32.133630 72.983210 32.570669 -20.875100 -1.255741 -2.464430 -0.516354 -1.426972 -0.337923
